<svg width="48" height="48" viewBox="0 0 48 48" fill="none" xmlns="http://www.w3.org/2000/svg">
<rect width="48" height="48" fill="#323238"/>
<path d="M37.2222 7H10.7778C8.69137 7 7 8.69137 7 10.7778V37.2222C7 39.3086 8.69137 41 10.7778 41H37.2222C39.3086 41 41 39.3086 41 37.2222V10.7778C41 8.69137 39.3086 7 37.2222 7ZM17.3889 34.3889C17.3889 34.9105 16.966 35.3333 16.4444 35.3333H13.6111C13.0895 35.3333 12.6667 34.9105 12.6667 34.3889V21.1667C12.6667 20.6451 13.0895 20.2222 13.6111 20.2222H16.4444C16.966 20.2222 17.3889 20.6451 17.3889 21.1667V34.3889ZM15.0278 18.3333C13.463 18.3333 12.1944 17.0648 12.1944 15.5C12.1944 13.9352 13.463 12.6667 15.0278 12.6667C16.5926 12.6667 17.8611 13.9352 17.8611 15.5C17.8611 17.0648 16.5926 18.3333 15.0278 18.3333ZM35.3333 34.3889C35.3333 34.9105 34.9105 35.3333 34.3889 35.3333H31.5556C31.034 35.3333 30.6111 34.9105 30.6111 34.3889V27.3056C30.6111 25.7407 29.3426 24.4722 27.7778 24.4722C26.213 24.4722 24.9444 25.7407 24.9444 27.3056V34.3889C24.9444 34.9105 24.5216 35.3333 24 35.3333H21.1667C20.6451 35.3333 20.2222 34.9105 20.2222 34.3889V21.1667C20.2222 20.6451 20.6451 20.2222 21.1667 20.2222H24C24.5216 20.2222 24.9444 20.6451 24.9444 21.1667V22.3C26.0934 20.5517 28.1122 19.5786 30.1956 19.7689C33.1755 20.1363 35.3946 22.6981 35.3333 25.7V34.3889Z" fill="white"/>
</svg>
